<mxfile host="app.diagrams.net" modified="2023-11-28T13:41:23.298Z" agent="Mozilla/5.0 (Windows NT 10.0; Win64; x64; rv:121.0) Gecko/20100101 Firefox/121.0" etag="gC22XwDhu6lyeL23n7s6" version="22.1.4" type="device">
  <diagram name="Page-1" id="a0Z2B0K3b04PMAvy7lob">
    <mxGraphModel dx="2390" dy="2612" grid="1" gridSize="10" guides="1" tooltips="1" connect="1" arrows="1" fold="1" page="1" pageScale="1" pageWidth="850" pageHeight="1100" math="0" shadow="0">
      <root>
        <mxCell id="0" />
        <mxCell id="1" parent="0" />
        <mxCell id="E54US4vf2LRp27C33cfR-2" value="Subspace number Estimator" style="rounded=1;whiteSpace=wrap;html=1;fillColor=#e1d5e7;strokeColor=#9673a6;" vertex="1" parent="1">
          <mxGeometry x="100" y="150" width="180" height="60" as="geometry" />
        </mxCell>
        <mxCell id="E54US4vf2LRp27C33cfR-21" style="edgeStyle=orthogonalEdgeStyle;rounded=0;orthogonalLoop=1;jettySize=auto;html=1;exitX=0.5;exitY=1;exitDx=0;exitDy=0;entryX=0.5;entryY=0;entryDx=0;entryDy=0;" edge="1" parent="1" source="E54US4vf2LRp27C33cfR-10" target="E54US4vf2LRp27C33cfR-20">
          <mxGeometry relative="1" as="geometry" />
        </mxCell>
        <mxCell id="E54US4vf2LRp27C33cfR-10" value="Vectors Reader" style="rounded=1;whiteSpace=wrap;html=1;" vertex="1" parent="1">
          <mxGeometry x="300" y="270" width="310" height="80" as="geometry" />
        </mxCell>
        <mxCell id="E54US4vf2LRp27C33cfR-17" style="edgeStyle=orthogonalEdgeStyle;rounded=0;orthogonalLoop=1;jettySize=auto;html=1;entryX=0.5;entryY=0;entryDx=0;entryDy=0;" edge="1" parent="1" source="E54US4vf2LRp27C33cfR-13" target="E54US4vf2LRp27C33cfR-10">
          <mxGeometry relative="1" as="geometry" />
        </mxCell>
        <mxCell id="E54US4vf2LRp27C33cfR-18" style="edgeStyle=orthogonalEdgeStyle;rounded=0;orthogonalLoop=1;jettySize=auto;html=1;entryX=0.5;entryY=0;entryDx=0;entryDy=0;" edge="1" parent="1" source="E54US4vf2LRp27C33cfR-13" target="E54US4vf2LRp27C33cfR-2">
          <mxGeometry relative="1" as="geometry" />
        </mxCell>
        <mxCell id="E54US4vf2LRp27C33cfR-38" style="edgeStyle=orthogonalEdgeStyle;rounded=0;orthogonalLoop=1;jettySize=auto;html=1;entryX=0.5;entryY=0;entryDx=0;entryDy=0;" edge="1" parent="1" source="E54US4vf2LRp27C33cfR-13" target="E54US4vf2LRp27C33cfR-37">
          <mxGeometry relative="1" as="geometry">
            <Array as="points">
              <mxPoint x="455" y="-60" />
              <mxPoint x="1050" y="-60" />
            </Array>
          </mxGeometry>
        </mxCell>
        <mxCell id="E54US4vf2LRp27C33cfR-13" value="Disk" style="shape=cylinder3;whiteSpace=wrap;html=1;boundedLbl=1;backgroundOutline=1;size=15;" vertex="1" parent="1">
          <mxGeometry x="400" y="10" width="110" height="125" as="geometry" />
        </mxCell>
        <mxCell id="E54US4vf2LRp27C33cfR-27" style="edgeStyle=orthogonalEdgeStyle;rounded=0;orthogonalLoop=1;jettySize=auto;html=1;entryX=0.5;entryY=0;entryDx=0;entryDy=0;" edge="1" parent="1" source="E54US4vf2LRp27C33cfR-19" target="E54US4vf2LRp27C33cfR-23">
          <mxGeometry relative="1" as="geometry">
            <Array as="points">
              <mxPoint x="463" y="740" />
            </Array>
          </mxGeometry>
        </mxCell>
        <mxCell id="E54US4vf2LRp27C33cfR-19" value="&lt;font style=&quot;font-size: 24px;&quot;&gt;HNSW BUILDER&lt;/font&gt;" style="rounded=1;whiteSpace=wrap;html=1;" vertex="1" parent="1">
          <mxGeometry x="225" y="500" width="460" height="210" as="geometry" />
        </mxCell>
        <mxCell id="E54US4vf2LRp27C33cfR-22" style="edgeStyle=orthogonalEdgeStyle;rounded=0;orthogonalLoop=1;jettySize=auto;html=1;entryX=0.5;entryY=0;entryDx=0;entryDy=0;" edge="1" parent="1" source="E54US4vf2LRp27C33cfR-20" target="E54US4vf2LRp27C33cfR-19">
          <mxGeometry relative="1" as="geometry" />
        </mxCell>
        <mxCell id="E54US4vf2LRp27C33cfR-20" value="Vector Divisor" style="rounded=1;whiteSpace=wrap;html=1;" vertex="1" parent="1">
          <mxGeometry x="395" y="380" width="120" height="60" as="geometry" />
        </mxCell>
        <mxCell id="E54US4vf2LRp27C33cfR-23" value="Memory-Disk Mapper" style="rounded=1;whiteSpace=wrap;html=1;" vertex="1" parent="1">
          <mxGeometry x="325" y="770" width="275" height="70" as="geometry" />
        </mxCell>
        <mxCell id="E54US4vf2LRp27C33cfR-24" style="edgeStyle=orthogonalEdgeStyle;rounded=0;orthogonalLoop=1;jettySize=auto;html=1;" edge="1" parent="1" source="E54US4vf2LRp27C33cfR-23" target="E54US4vf2LRp27C33cfR-13">
          <mxGeometry relative="1" as="geometry">
            <Array as="points">
              <mxPoint x="720" y="805" />
              <mxPoint x="720" y="73" />
            </Array>
          </mxGeometry>
        </mxCell>
        <mxCell id="E54US4vf2LRp27C33cfR-28" style="edgeStyle=orthogonalEdgeStyle;rounded=0;orthogonalLoop=1;jettySize=auto;html=1;entryX=0.01;entryY=0.61;entryDx=0;entryDy=0;entryPerimeter=0;" edge="1" parent="1" source="E54US4vf2LRp27C33cfR-2" target="E54US4vf2LRp27C33cfR-20">
          <mxGeometry relative="1" as="geometry">
            <Array as="points">
              <mxPoint x="190" y="417" />
            </Array>
          </mxGeometry>
        </mxCell>
        <mxCell id="E54US4vf2LRp27C33cfR-33" value="Number of Subspaces (S)" style="edgeLabel;html=1;align=center;verticalAlign=middle;resizable=0;points=[];" vertex="1" connectable="0" parent="E54US4vf2LRp27C33cfR-28">
          <mxGeometry x="-0.7183" y="-1" relative="1" as="geometry">
            <mxPoint as="offset" />
          </mxGeometry>
        </mxCell>
        <mxCell id="E54US4vf2LRp27C33cfR-29" value="Vectors Cardinality" style="text;strokeColor=none;align=center;fillColor=none;html=1;verticalAlign=middle;whiteSpace=wrap;rounded=0;" vertex="1" parent="1">
          <mxGeometry x="90" y="90" width="60" height="30" as="geometry" />
        </mxCell>
        <mxCell id="E54US4vf2LRp27C33cfR-31" value="Ram available size" style="text;strokeColor=none;align=center;fillColor=none;html=1;verticalAlign=middle;whiteSpace=wrap;rounded=0;" vertex="1" parent="1">
          <mxGeometry x="220" y="85" width="60" height="50" as="geometry" />
        </mxCell>
        <mxCell id="E54US4vf2LRp27C33cfR-46" style="edgeStyle=orthogonalEdgeStyle;rounded=0;orthogonalLoop=1;jettySize=auto;html=1;" edge="1" parent="1" source="E54US4vf2LRp27C33cfR-36" target="E54US4vf2LRp27C33cfR-45">
          <mxGeometry relative="1" as="geometry" />
        </mxCell>
        <mxCell id="E54US4vf2LRp27C33cfR-51" value="Candidates list" style="edgeLabel;html=1;align=center;verticalAlign=middle;resizable=0;points=[];" vertex="1" connectable="0" parent="E54US4vf2LRp27C33cfR-46">
          <mxGeometry x="-0.1895" relative="1" as="geometry">
            <mxPoint as="offset" />
          </mxGeometry>
        </mxCell>
        <mxCell id="E54US4vf2LRp27C33cfR-36" value="HNSW SEARCHER" style="rounded=1;whiteSpace=wrap;html=1;" vertex="1" parent="1">
          <mxGeometry x="895" y="300" width="310" height="155" as="geometry" />
        </mxCell>
        <mxCell id="E54US4vf2LRp27C33cfR-42" style="edgeStyle=orthogonalEdgeStyle;rounded=0;orthogonalLoop=1;jettySize=auto;html=1;" edge="1" parent="1" source="E54US4vf2LRp27C33cfR-37" target="E54US4vf2LRp27C33cfR-36">
          <mxGeometry relative="1" as="geometry" />
        </mxCell>
        <mxCell id="E54US4vf2LRp27C33cfR-50" value="Subspace Graph" style="edgeLabel;html=1;align=center;verticalAlign=middle;resizable=0;points=[];" vertex="1" connectable="0" parent="E54US4vf2LRp27C33cfR-42">
          <mxGeometry x="0.1481" y="2" relative="1" as="geometry">
            <mxPoint as="offset" />
          </mxGeometry>
        </mxCell>
        <mxCell id="E54US4vf2LRp27C33cfR-37" value="Graph reader" style="rounded=1;whiteSpace=wrap;html=1;" vertex="1" parent="1">
          <mxGeometry x="950" y="110" width="200" height="100" as="geometry" />
        </mxCell>
        <mxCell id="E54US4vf2LRp27C33cfR-43" value="Search Query" style="ellipse;whiteSpace=wrap;html=1;" vertex="1" parent="1">
          <mxGeometry x="1360" y="350" width="120" height="80" as="geometry" />
        </mxCell>
        <mxCell id="E54US4vf2LRp27C33cfR-44" style="edgeStyle=orthogonalEdgeStyle;rounded=0;orthogonalLoop=1;jettySize=auto;html=1;entryX=0.999;entryY=0.638;entryDx=0;entryDy=0;entryPerimeter=0;" edge="1" parent="1" source="E54US4vf2LRp27C33cfR-43" target="E54US4vf2LRp27C33cfR-36">
          <mxGeometry relative="1" as="geometry">
            <Array as="points">
              <mxPoint x="1282" y="400" />
              <mxPoint x="1282" y="399" />
            </Array>
          </mxGeometry>
        </mxCell>
        <mxCell id="E54US4vf2LRp27C33cfR-48" style="edgeStyle=orthogonalEdgeStyle;rounded=0;orthogonalLoop=1;jettySize=auto;html=1;" edge="1" parent="1" source="E54US4vf2LRp27C33cfR-45" target="E54US4vf2LRp27C33cfR-47">
          <mxGeometry relative="1" as="geometry" />
        </mxCell>
        <mxCell id="E54US4vf2LRp27C33cfR-52" value="Results" style="edgeLabel;html=1;align=center;verticalAlign=middle;resizable=0;points=[];" vertex="1" connectable="0" parent="E54US4vf2LRp27C33cfR-48">
          <mxGeometry x="-0.2504" y="5" relative="1" as="geometry">
            <mxPoint as="offset" />
          </mxGeometry>
        </mxCell>
        <mxCell id="E54US4vf2LRp27C33cfR-45" value="Product Quantizer" style="rounded=1;whiteSpace=wrap;html=1;" vertex="1" parent="1">
          <mxGeometry x="895" y="600" width="310" height="155" as="geometry" />
        </mxCell>
        <mxCell id="E54US4vf2LRp27C33cfR-47" value="KNN &lt;br&gt;Results" style="rounded=1;whiteSpace=wrap;html=1;" vertex="1" parent="1">
          <mxGeometry x="952.5" y="830" width="195" height="100" as="geometry" />
        </mxCell>
      </root>
    </mxGraphModel>
  </diagram>
</mxfile>
